<?xml version="1.0" encoding="UTF-8" standalone="no"?>
<!-- Created with Inkscape (http://www.inkscape.org/) -->

<svg
   width="350.22964"
   height="355.38013"
   viewBox="0 0 92.664922 94.027661"
   version="1.1"
   id="svg4752"
   xmlns:xlink="http://www.w3.org/1999/xlink"
   xmlns="http://www.w3.org/2000/svg"
   xmlns:svg="http://www.w3.org/2000/svg"
   xmlns:rdf="http://www.w3.org/1999/02/22-rdf-syntax-ns#"
   xmlns:cc="http://creativecommons.org/ns#"
   xmlns:dc="http://purl.org/dc/elements/1.1/">
  <defs
     id="defs4746">
    <linearGradient
       id="linearGradient4831">
      <stop
         style="stop-color:#ffffff;stop-opacity:1;"
         offset="0"
         id="stop4827" />
      <stop
         style="stop-color:#d2d2d2;stop-opacity:1"
         offset="1"
         id="stop4829" />
    </linearGradient>
    <linearGradient
       xlink:href="#linearGradient4831"
       id="linearGradient4833"
       x1="148.24423"
       y1="105.47142"
       x2="161.69073"
       y2="118.91792"
       gradientUnits="userSpaceOnUse" />
  </defs>
  <metadata
     id="metadata4749">
    <rdf:RDF>
      <cc:Work
         rdf:about="">
        <dc:format>image/svg+xml</dc:format>
        <dc:type
           rdf:resource="http://purl.org/dc/dcmitype/StillImage" />
        <dc:title />
      </cc:Work>
    </rdf:RDF>
  </metadata>
  <g
     id="layer3"
     transform="translate(-19.901891,-20.719495)">
    <path
       d="m 163.98801,120.14294 v 1.00001 h -12.96013 v -1.00001 q 0.84001,-0.12 1.28001,-0.12 1.92002,-0.12 1.92002,-1.32001 0,-1.20001 -1.84001,-5.44006 h -9.0001 l -0.6,1.56002 q -1.16001,3.00003 -1.16001,3.68004 0,0.76 0.76,1.16001 0.76001,0.36 2.52003,0.48 v 1.00001 h -8.12008 v -1.00001 q 1.44001,-0.28 2.08002,-1.08001 0.68001,-0.80001 1.84002,-3.60004 l 8.88009,-21.920217 h 1.12001 l 8.92009,21.040217 q 1.48001,3.52003 2.24002,4.56004 0.80001,1.00001 1.96002,1.00001 z m -20.0002,-8.44008 h 7.80008 l -4.04004,-9.7201 z"
       id="flowRoot4809"
       style="font-weight:bold;font-size:40.0004px;line-height:1.25;font-family:FreeSerif;-inkscape-font-specification:'FreeSerif, Bold';letter-spacing:0px;word-spacing:0px;fill:url(#linearGradient4833);stroke-width:0.293534"
       transform="matrix(3.4067649,0,0,3.4067649,-446.10178,-297.9584)"
       aria-label="A" />
  </g>
</svg>
